<svg width="26" height="39" viewBox="0 0 26 39" fill="none" xmlns="http://www.w3.org/2000/svg">
<path d="M2.36365 35.9412V3.05882C2.36365 1.36948 3.77463 0 5.51516 0H20.8788C22.6193 0 24.0303 1.36948 24.0303 3.05882V35.9412C24.0303 37.6305 22.6193 39 20.8788 39H5.51516C3.77463 39 2.36365 37.6305 2.36365 35.9412Z" fill="#E56717"/>
<mask id="mask0_18_34" style="mask-type:alpha" maskUnits="userSpaceOnUse" x="2" y="0" width="23" height="39">
<path d="M2.36365 35.9412V3.05882C2.36365 1.36948 3.77463 0 5.51516 0H20.8788C22.6193 0 24.0303 1.36948 24.0303 3.05882V35.9412C24.0303 37.6305 22.6193 39 20.8788 39H5.51516C3.77463 39 2.36365 37.6305 2.36365 35.9412Z" fill="black"/>
</mask>
<g mask="url(#mask0_18_34)">
<path d="M3.93939 32.5002V6.50023C3.93939 4.81089 5.35037 3.44141 7.09091 3.44141H18.9091C20.6496 3.44141 22.0606 4.81089 22.0606 6.50023V32.5002C22.0606 34.1895 20.6496 35.559 18.9091 35.559H7.09091C5.35037 35.559 3.93939 34.1895 3.93939 32.5002Z" fill="white"/>
<path d="M9.06061 1.52954H16.9394" stroke="white" stroke-linecap="round" stroke-linejoin="round"/>
<path d="M11.0303 37.0884H15.7575" stroke="white" stroke-width="2" stroke-linecap="round" stroke-linejoin="round"/>
<path d="M25.7693 10.8644C26.0769 10.5658 26.0769 10.0815 25.7693 9.78292L20.7552 4.91636C20.4475 4.61772 19.9487 4.61772 19.641 4.91636C19.3333 5.215 19.3333 5.69918 19.641 5.99782L24.0979 10.3236L19.641 14.6495C19.3333 14.9481 19.3333 15.4323 19.641 15.731C19.9487 16.0296 20.4475 16.0296 20.7552 15.731L25.7693 10.8644ZM22.0606 11.0884H25.2121V9.55894H22.0606V11.0884Z" fill="#E56717"/>
<path d="M18.6783 20.0407C18.986 19.742 18.986 19.2578 18.6783 18.9592L13.6642 14.0926C13.3566 13.794 12.8578 13.794 12.55 14.0926C12.2424 14.3913 12.2424 14.8754 12.55 15.1741L17.007 19.4999L12.55 23.8258C12.2424 24.1244 12.2424 24.6085 12.55 24.9072C12.8578 25.2059 13.3566 25.2059 13.6642 24.9072L18.6783 20.0407ZM16.9394 20.2646H18.1212V18.7352H16.9394V20.2646Z" fill="#E56717"/>
<path d="M13.1632 29.2172C13.4708 28.9185 13.4708 28.4343 13.1632 28.1357L8.14909 23.2691C7.84144 22.9705 7.34259 22.9705 7.0349 23.2691C6.72722 23.5678 6.72722 24.052 7.0349 24.3506L11.4918 28.6764L7.0349 33.0023C6.72722 33.3009 6.72722 33.7851 7.0349 34.0838C7.34259 34.3824 7.84144 34.3824 8.14909 34.0838L13.1632 29.2172ZM11.0303 29.4411H12.606V27.9117H11.0303V29.4411Z" fill="#E56717"/>
<path d="M7.87878 30.2058H12.6061" stroke="white" stroke-width="2" stroke-linecap="round"/>
<path d="M12.6061 21.7942H17.3334" stroke="white" stroke-width="2" stroke-linecap="round"/>
<path d="M18.1212 11.853H24.4242" stroke="white" stroke-width="2"/>
<path d="M0.787903 28.6765H11.0303" stroke="#E56717" stroke-width="3" stroke-linecap="round"/>
<path d="M7.87878 19.5H18.1212" stroke="#E56717" stroke-width="3" stroke-linecap="round"/>
<path d="M14.9697 10.3235H25.2121" stroke="#E56717" stroke-width="3" stroke-linecap="round"/>
</g>
</svg>
