<svg width="33" height="34" viewBox="0 0 33 34" fill="none" xmlns="http://www.w3.org/2000/svg">
<path d="M14.1124 28.7843C17.2435 28.7837 20.2844 27.7395 22.7509 25.818L30.5056 33.5431L33 31.0583L25.2453 23.3331C27.1751 20.8758 28.224 17.8458 28.2247 14.7258C28.2247 6.97434 21.8936 0.667358 14.1124 0.667358C6.33116 0.667358 0 6.97434 0 14.7258C0 22.4773 6.33116 28.7843 14.1124 28.7843ZM14.1124 4.18198C19.9496 4.18198 24.6966 8.91089 24.6966 14.7258C24.6966 20.5408 19.9496 25.2697 14.1124 25.2697C8.27514 25.2697 3.52809 20.5408 3.52809 14.7258C3.52809 8.91089 8.27514 4.18198 14.1124 4.18198Z" fill="white"/>
</svg>
